<?xml version="1.0" encoding="UTF-8" standalone="no"?>
<!-- Created with Inkscape (http://www.inkscape.org/) -->

<svg
   xmlns:dc="http://purl.org/dc/elements/1.1/"
   xmlns:cc="http://creativecommons.org/ns#"
   xmlns:rdf="http://www.w3.org/1999/02/22-rdf-syntax-ns#"
   xmlns:svg="http://www.w3.org/2000/svg"
   xmlns="http://www.w3.org/2000/svg"
   xmlns:sodipodi="http://sodipodi.sourceforge.net/DTD/sodipodi-0.dtd"
   xmlns:inkscape="http://www.inkscape.org/namespaces/inkscape"
   width="10mm"
   height="10mm"
   viewBox="0 0 10 10"
   version="1.1"
   id="svg8"
   sodipodi:docname="logo.svg"
   inkscape:version="0.92.1 r15371">
  <defs
     id="defs2">
    <clipPath
       clipPathUnits="userSpaceOnUse"
       id="clipPath4683">
      <circle
         style="opacity:1;fill:#ffffff;fill-opacity:0.97478991;stroke:#008d06;stroke-width:0;stroke-linecap:butt;stroke-linejoin:miter;stroke-miterlimit:4;stroke-dasharray:none;stroke-opacity:1"
         id="circle4685"
         cx="5"
         cy="5"
         r="4.9999995" />
    </clipPath>
    <clipPath
       clipPathUnits="userSpaceOnUse"
       id="clipPath4687">
      <circle
         style="opacity:1;fill:#ffffff;fill-opacity:0.97478991;stroke:#008d06;stroke-width:0;stroke-linecap:butt;stroke-linejoin:miter;stroke-miterlimit:4;stroke-dasharray:none;stroke-opacity:1"
         id="circle4689"
         cx="5"
         cy="292"
         r="4.9999995" />
    </clipPath>
    <clipPath
       clipPathUnits="userSpaceOnUse"
       id="clipPath4691">
      <circle
         style="opacity:1;fill:#ffffff;fill-opacity:0.97478991;stroke:#008d06;stroke-width:0;stroke-linecap:butt;stroke-linejoin:miter;stroke-miterlimit:4;stroke-dasharray:none;stroke-opacity:1"
         id="circle4693"
         cx="18.897638"
         cy="18.897638"
         r="18.897636" />
    </clipPath>
  </defs>
  <sodipodi:namedview
     id="base"
     pagecolor="#ffffff"
     bordercolor="#666666"
     borderopacity="1.0"
     inkscape:pageopacity="0"
     inkscape:pageshadow="2"
     inkscape:zoom="22.357292"
     inkscape:cx="11.444178"
     inkscape:cy="19.149035"
     inkscape:document-units="mm"
     inkscape:current-layer="layer1"
     showgrid="false"
     showguides="true"
     inkscape:snap-global="false"
     inkscape:window-width="1920"
     inkscape:window-height="1020"
     inkscape:window-x="0"
     inkscape:window-y="31"
     inkscape:window-maximized="1"
     inkscape:pagecheckerboard="true" />
  <metadata
     id="metadata5">
    <rdf:RDF>
      <cc:Work
         rdf:about="">
        <dc:format>image/svg+xml</dc:format>
        <dc:type
           rdf:resource="http://purl.org/dc/dcmitype/StillImage" />
        <dc:title></dc:title>
      </cc:Work>
    </rdf:RDF>
  </metadata>
  <g
     inkscape:label="Ebene 1"
     inkscape:groupmode="layer"
     id="layer1"
     transform="translate(0,-287)">
    <path
       style="fill:#ff7efd;fill-opacity:1;stroke-width:0.72307909"
       d="M 18.898438,0 A 18.897638,18.897638 0 0 0 18.587891,0.01171875 18.897638,18.897638 0 0 1 19.054688,0.0078125 18.897638,18.897638 0 0 0 18.898438,0 Z m 0.15625,0.0078125 A 18.897638,18.897638 0 0 1 20.019531,0.05664062 18.897638,18.897638 0 0 0 19.054688,0.0078125 Z m 0.964843,0.04882812 a 18.897638,18.897638 0 0 1 1,0.07226563 18.897638,18.897638 0 0 0 -1,-0.07226563 z m 1,0.07226563 A 18.897638,18.897638 0 0 1 21.912109,0.265625 18.897638,18.897638 0 0 0 21.019531,0.12890625 Z M 21.912109,0.265625 A 18.897638,18.897638 0 0 1 22.871094,0.43359375 18.897638,18.897638 0 0 0 21.912109,0.265625 Z m 0.958985,0.16796875 A 18.897638,18.897638 0 0 1 23.773438,0.6640625 18.897638,18.897638 0 0 0 22.871094,0.43359375 Z M 23.773438,0.6640625 A 18.897638,18.897638 0 0 1 24.691406,0.91992188 18.897638,18.897638 0 0 0 23.773438,0.6640625 Z m 0.917968,0.25585938 A 18.897638,18.897638 0 0 1 25.591797,1.25 18.897638,18.897638 0 0 0 24.691406,0.91992188 Z M 25.591797,1.25 A 18.897638,18.897638 0 0 1 26.451172,1.5859375 18.897638,18.897638 0 0 0 25.591797,1.25 Z m 0.859375,0.3359375 a 18.897638,18.897638 0 0 1 0.849609,0.4101563 18.897638,18.897638 0 0 0 -0.849609,-0.4101563 z m 0.849609,0.4101563 a 18.897638,18.897638 0 0 1 0.851563,0.4355468 18.897638,18.897638 0 0 0 -0.851563,-0.4355468 z m 0.851563,0.4355468 a 18.897638,18.897638 0 0 1 0.185547,0.1132813 l 0.0078,-0.013672 A 18.897638,18.897638 0 0 0 28.152344,2.4316406 Z M 28.337891,2.5449219 9.1757812,35.076172 a 18.897638,18.897638 0 0 0 0.00195,0.002 L 32.251953,5.5449219 a 18.897638,18.897638 0 0 0 -3.914062,-3 z m 3.914062,3 A 18.897638,18.897638 0 0 1 32.404297,5.6875 18.897638,18.897638 0 0 0 32.259766,5.5351562 Z M 32.404297,5.6875 A 18.897638,18.897638 0 0 1 32.517578,5.8066406 18.897638,18.897638 0 0 0 32.404297,5.6875 Z m 0.113281,0.1191406 a 18.897638,18.897638 0 0 1 0.761719,0.8632813 18.897638,18.897638 0 0 0 -0.761719,-0.8632813 z m 0.761719,0.8632813 a 18.897638,18.897638 0 0 1 0.619141,0.7558593 18.897638,18.897638 0 0 0 -0.619141,-0.7558593 z m 0.619141,0.7558593 a 18.897638,18.897638 0 0 1 0.53125,0.7441407 18.897638,18.897638 0 0 0 -0.53125,-0.7441407 z m 0.53125,0.7441407 a 18.897638,18.897638 0 0 1 0.52539,0.7910156 18.897638,18.897638 0 0 0 -0.52539,-0.7910156 z m 0.52539,0.7910156 a 18.897638,18.897638 0 0 1 0.46875,0.8125 18.897638,18.897638 0 0 0 -0.46875,-0.8125 z m 0.46875,0.8125 a 18.897638,18.897638 0 0 1 0.455078,0.8632815 18.897638,18.897638 0 0 0 -0.455078,-0.8632815 z m 0.455078,0.8632815 a 18.897638,18.897638 0 0 1 0.359375,0.804687 18.897638,18.897638 0 0 0 -0.359375,-0.804687 z m 0.359375,0.804687 a 18.897638,18.897638 0 0 1 0.38086,0.935547 18.897638,18.897638 0 0 0 -0.38086,-0.935547 z m 0.38086,0.935547 a 18.897638,18.897638 0 0 1 0.277343,0.832031 18.897638,18.897638 0 0 0 -0.277343,-0.832031 z m 0.277343,0.832031 a 18.897638,18.897638 0 0 1 0.283204,0.957032 18.897638,18.897638 0 0 0 -0.283204,-0.957032 z m 0.283204,0.957032 a 18.897638,18.897638 0 0 1 0.201171,0.90039 18.897638,18.897638 0 0 0 -0.201171,-0.90039 z m 0.201171,0.90039 a 18.897638,18.897638 0 0 1 0.179688,0.947266 18.897638,18.897638 0 0 0 -0.179688,-0.947266 z m 0.179688,0.947266 a 18.897638,18.897638 0 0 1 0.107422,0.892578 18.897638,18.897638 0 0 0 -0.107422,-0.892578 z m 0.107422,0.892578 a 18.897638,18.897638 0 0 1 0.0957,1.087891 18.897638,18.897638 0 0 0 -0.0957,-1.087891 z m 0.0957,1.087891 a 18.897638,18.897638 0 0 1 0.01367,0.429687 18.897638,18.897638 0 0 0 -0.01367,-0.429687 z m 0.01367,0.429687 a 18.897638,18.897638 0 0 1 -0.01367,1.111328 18.897638,18.897638 0 0 0 0.03125,-0.636718 18.897638,18.897638 0 0 0 -0.01758,-0.47461 z m -0.01367,1.111328 a 18.897638,18.897638 0 0 1 -0.04297,0.871094 18.897638,18.897638 0 0 0 0.04297,-0.871094 z m -0.04297,0.871094 a 18.897638,18.897638 0 0 1 -0.115234,1.011719 18.897638,18.897638 0 0 0 0.115234,-1.011719 z m -0.115234,1.011719 a 18.897638,18.897638 0 0 1 -0.132813,0.876953 18.897638,18.897638 0 0 0 0.132813,-0.876953 z m -0.132813,0.876953 a 18.897638,18.897638 0 0 1 -0.203125,0.9375 18.897638,18.897638 0 0 0 0.203125,-0.9375 z m -0.203125,0.9375 a 18.897638,18.897638 0 0 1 -0.232422,0.916016 18.897638,18.897638 0 0 0 0.232422,-0.916016 z m -0.232422,0.916016 A 18.897638,18.897638 0 0 1 36.75,25.033203 18.897638,18.897638 0 0 0 37.037109,24.148438 Z M 36.75,25.033203 A 18.897638,18.897638 0 0 1 36.419922,25.9375 18.897638,18.897638 0 0 0 36.75,25.033203 Z M 36.419922,25.9375 a 18.897638,18.897638 0 0 1 -0.382813,0.871094 18.897638,18.897638 0 0 0 0.382813,-0.871094 z m -0.382813,0.871094 a 18.897638,18.897638 0 0 1 -0.394531,0.814453 18.897638,18.897638 0 0 0 0.394531,-0.814453 z m -0.394531,0.814453 a 18.897638,18.897638 0 0 1 -0.480469,0.857422 18.897638,18.897638 0 0 0 0.480469,-0.857422 z m -0.480469,0.857422 a 18.897638,18.897638 0 0 1 -0.486328,0.791015 18.897638,18.897638 0 0 0 0.486328,-0.791015 z m -0.486328,0.791015 A 18.897638,18.897638 0 0 1 34.125,30.054688 18.897638,18.897638 0 0 0 34.675781,29.271484 Z M 34.125,30.054688 a 18.897638,18.897638 0 0 1 -0.6875,0.90625 18.897638,18.897638 0 0 0 0.351562,-0.429688 18.897638,18.897638 0 0 0 0.335938,-0.476562 z m -0.6875,0.90625 a 18.897638,18.897638 0 0 1 -0.144531,0.173828 18.897638,18.897638 0 0 0 0.144531,-0.173828 z m -0.144531,0.173828 a 18.897638,18.897638 0 0 1 -0.634766,0.68164 18.897638,18.897638 0 0 0 0.634766,-0.68164 z m -0.634766,0.68164 a 18.897638,18.897638 0 0 1 -0.675781,0.708985 18.897638,18.897638 0 0 0 0.675781,-0.708985 z m -0.675781,0.708985 a 18.897638,18.897638 0 0 1 -0.705078,0.61914 18.897638,18.897638 0 0 0 0.705078,-0.61914 z m -0.705078,0.61914 a 18.897638,18.897638 0 0 1 -0.730469,0.626953 18.897638,18.897638 0 0 0 0.730469,-0.626953 z m -0.730469,0.626953 a 18.897638,18.897638 0 0 1 -0.761719,0.542969 18.897638,18.897638 0 0 0 0.761719,-0.542969 z m -0.761719,0.542969 a 18.897638,18.897638 0 0 1 -0.767578,0.535156 18.897638,18.897638 0 0 0 0.767578,-0.535156 z m -0.767578,0.535156 a 18.897638,18.897638 0 0 1 -0.845703,0.486329 18.897638,18.897638 0 0 0 0.845703,-0.486329 z m -0.845703,0.486329 a 18.897638,18.897638 0 0 1 -0.808594,0.451171 18.897638,18.897638 0 0 0 0.808594,-0.451171 z m -0.808594,0.451171 a 18.897638,18.897638 0 0 1 -0.767578,0.34375 18.897638,18.897638 0 0 0 0.767578,-0.34375 z m -0.767578,0.34375 a 18.897638,18.897638 0 0 1 -0.980469,0.423829 18.897638,18.897638 0 0 0 0.980469,-0.423829 z m -0.980469,0.423829 a 18.897638,18.897638 0 0 1 -0.697265,0.232421 18.897638,18.897638 0 0 0 0.697265,-0.232421 z m -0.697265,0.232421 a 18.897638,18.897638 0 0 1 -1.095703,0.34961 18.897638,18.897638 0 0 0 1.095703,-0.34961 z m -1.095703,0.34961 a 18.897638,18.897638 0 0 1 -0.826172,0.185547 18.897638,18.897638 0 0 0 0.826172,-0.185547 z m -0.826172,0.185547 a 18.897638,18.897638 0 0 1 -0.994141,0.210937 18.897638,18.897638 0 0 0 0.994141,-0.210937 z m -0.994141,0.210937 a 18.897638,18.897638 0 0 1 -0.916015,0.111328 18.897638,18.897638 0 0 0 0.916015,-0.111328 z m -0.916015,0.111328 a 18.897638,18.897638 0 0 1 -0.998047,0.109375 18.897638,18.897638 0 0 0 0.998047,-0.109375 z m -0.998047,0.109375 a 18.897638,18.897638 0 0 1 -0.302735,0.0098 18.897638,18.897638 0 0 0 0.302735,-0.0098 z m -0.302735,0.0098 a 18.897638,18.897638 0 0 1 -1.273437,0.01172 18.897638,18.897638 0 0 0 0.386719,0.01953 18.897638,18.897638 0 0 0 0.886718,-0.03125 z m -1.273437,0.01172 a 18.897638,18.897638 0 0 1 -0.941407,-0.04687 18.897638,18.897638 0 0 0 0.941407,0.04687 z m -0.941407,-0.04687 a 18.897638,18.897638 0 0 1 -0.945312,-0.08594 18.897638,18.897638 0 0 0 0.945312,0.08594 z M 16.625,37.642578 A 18.897638,18.897638 0 0 1 15.691406,37.501953 18.897638,18.897638 0 0 0 16.625,37.642578 Z m -0.933594,-0.140625 a 18.897638,18.897638 0 0 1 -0.925781,-0.179687 18.897638,18.897638 0 0 0 0.925781,0.179687 z m -0.925781,-0.179687 a 18.897638,18.897638 0 0 1 -0.912109,-0.232422 18.897638,18.897638 0 0 0 0.912109,0.232422 z m -0.912109,-0.232422 a 18.897638,18.897638 0 0 1 -0.900391,-0.269532 18.897638,18.897638 0 0 0 0.900391,0.269532 z m -0.900391,-0.269532 a 18.897638,18.897638 0 0 1 -0.910156,-0.333984 18.897638,18.897638 0 0 0 0.910156,0.333984 z m -0.910156,-0.333984 a 18.897638,18.897638 0 0 1 -0.845703,-0.349609 18.897638,18.897638 0 0 0 0.845703,0.349609 z m -0.845703,-0.349609 a 18.897638,18.897638 0 0 1 -0.853516,-0.410157 18.897638,18.897638 0 0 0 0.853516,0.410157 z M 10.34375,35.726562 A 18.897638,18.897638 0 0 1 9.5019531,35.275391 18.897638,18.897638 0 0 0 10.34375,35.726562 Z M 9.5019531,35.275391 A 18.897638,18.897638 0 0 1 9.1777344,35.078125 l -0.013672,0.01758 a 18.897638,18.897638 0 0 0 0.3378906,0.179688 z m -0.3378906,-0.179688 0.011719,-0.01953 a 18.897638,18.897638 0 0 1 -0.8554687,-0.523438 18.897638,18.897638 0 0 0 0.84375,0.542969 z m -0.84375,-0.542969 a 18.897638,18.897638 0 0 1 -0.1191406,-0.07813 18.897638,18.897638 0 0 0 0.1191406,0.07813 z m -0.1191406,-0.07813 a 18.897638,18.897638 0 0 1 -0.546875,-0.416015 18.897638,18.897638 0 0 0 0.546875,0.416015 z m -0.546875,-0.41601 A 18.897638,18.897638 0 0 1 6.6972656,33.328125 18.897638,18.897638 0 0 0 7.6542969,34.058594 Z M 6.6972656,33.328125 A 18.897638,18.897638 0 0 1 6.1523438,32.818359 18.897638,18.897638 0 0 0 6.6972656,33.328125 Z M 6.1523438,32.818359 A 18.897638,18.897638 0 0 1 5.3183594,32.039062 18.897638,18.897638 0 0 0 6.1523438,32.818359 Z M 5.3183594,32.039062 A 18.897638,18.897638 0 0 1 4.8671875,31.523438 18.897638,18.897638 0 0 0 5.3183594,32.039062 Z M 4.8671875,31.523438 A 18.897638,18.897638 0 0 1 4.0683594,30.607422 18.897638,18.897638 0 0 0 4.8671875,31.523438 Z M 4.0683594,30.607422 A 18.897638,18.897638 0 0 1 3.7109375,30.109375 18.897638,18.897638 0 0 0 4.0683594,30.607422 Z M 3.7109375,30.109375 A 18.897638,18.897638 0 0 1 2.9824219,29.082031 18.897638,18.897638 0 0 0 3.7109375,30.109375 Z M 2.9824219,29.082031 A 18.897638,18.897638 0 0 1 2.359375,27.996094 18.897638,18.897638 0 0 0 2.9824219,29.082031 Z M 2.359375,27.996094 A 18.897638,18.897638 0 0 1 2.0507812,27.455078 18.897638,18.897638 0 0 0 2.359375,27.996094 Z M 2.0507812,27.455078 a 18.897638,18.897638 0 0 1 -0.484375,-1.082031 18.897638,18.897638 0 0 0 0.484375,1.082031 z M 1.5664062,26.373047 A 18.897638,18.897638 0 0 1 1.2773438,25.720703 18.897638,18.897638 0 0 0 1.5664062,26.373047 Z M 1.2773438,25.720703 A 18.897638,18.897638 0 0 1 0.96289062,24.777344 18.897638,18.897638 0 0 0 1.2773438,25.720703 Z M 0.96289062,24.777344 A 18.897638,18.897638 0 0 1 0.68359375,23.923828 18.897638,18.897638 0 0 0 0.96289062,24.777344 Z M 0.68359375,23.923828 A 18.897638,18.897638 0 0 1 0.48632812,23.044922 18.897638,18.897638 0 0 0 0.68359375,23.923828 Z M 0.48632812,23.044922 A 18.897638,18.897638 0 0 1 0.27148438,22.078125 18.897638,18.897638 0 0 0 0.48632812,23.044922 Z M 0.27148438,22.078125 A 18.897638,18.897638 0 0 1 0.16601562,21.210938 18.897638,18.897638 0 0 0 0.27148438,22.078125 Z M 0.16601562,21.210938 A 18.897638,18.897638 0 0 1 0.04492187,20.197266 18.897638,18.897638 0 0 0 0.16601562,21.210938 Z M 0.04492187,20.197266 a 18.897638,18.897638 0 0 1 -0.0039063,-0.126954 18.897638,18.897638 0 0 0 0.0039063,0.126954 z M 0.04101562,20.070312 A 18.897638,18.897638 0 0 1 0.015625,18.59375 18.897638,18.897638 0 0 0 0,18.898438 18.897638,18.897638 0 0 0 0.04101562,20.070312 Z M 0.015625,18.59375 A 18.897638,18.897638 0 0 1 0.06054687,17.667969 18.897638,18.897638 0 0 0 0.015625,18.59375 Z m 0.04492187,-0.925781 a 18.897638,18.897638 0 0 1 0.08203125,-0.97461 18.897638,18.897638 0 0 0 -0.08203125,0.97461 z m 0.08203125,-0.97461 A 18.897638,18.897638 0 0 1 0.27734375,15.796875 18.897638,18.897638 0 0 0 0.14257812,16.693359 Z M 0.27734375,15.796875 A 18.897638,18.897638 0 0 1 0.453125,14.84375 18.897638,18.897638 0 0 0 0.27734375,15.796875 Z M 0.453125,14.84375 A 18.897638,18.897638 0 0 1 0.6796875,13.953125 18.897638,18.897638 0 0 0 0.453125,14.84375 Z M 0.6796875,13.953125 A 18.897638,18.897638 0 0 1 0.95507812,13.007812 18.897638,18.897638 0 0 0 0.6796875,13.953125 Z M 0.95507812,13.007812 A 18.897638,18.897638 0 0 1 1.2675781,12.152344 18.897638,18.897638 0 0 0 0.95507812,13.007812 Z M 1.2675781,12.152344 A 18.897638,18.897638 0 0 1 1.6230469,11.267578 18.897638,18.897638 0 0 0 1.2675781,12.152344 Z M 1.6230469,11.267578 A 18.897638,18.897638 0 0 1 2.03125,10.421875 18.897638,18.897638 0 0 0 1.6230469,11.267578 Z M 2.03125,10.421875 A 18.897638,18.897638 0 0 1 2.4804688,9.5644531 18.897638,18.897638 0 0 0 2.03125,10.421875 Z M 2.4804688,9.5644531 A 18.897638,18.897638 0 0 1 2.9472656,8.8027344 18.897638,18.897638 0 0 0 2.6152344,9.3066406 18.897638,18.897638 0 0 0 2.4804688,9.5644531 Z M 2.9472656,8.8027344 A 18.897638,18.897638 0 0 1 3.5,7.9628906 18.897638,18.897638 0 0 0 2.9472656,8.8027344 Z M 3.5,7.9628906 A 18.897638,18.897638 0 0 1 4.0253906,7.2734375 18.897638,18.897638 0 0 0 3.5,7.9628906 Z M 4.0253906,7.2734375 a 18.897638,18.897638 0 0 1 0.6328125,-0.78125 18.897638,18.897638 0 0 0 -0.6328125,0.78125 z m 0.6328125,-0.78125 A 18.897638,18.897638 0 0 1 5.3046875,5.8007812 18.897638,18.897638 0 0 0 4.6582031,6.4921875 Z M 5.3046875,5.8007812 A 18.897638,18.897638 0 0 1 5.9550781,5.1464844 18.897638,18.897638 0 0 0 5.3046875,5.8007812 Z M 5.9550781,5.1464844 a 18.897638,18.897638 0 0 1 0.7089844,-0.625 18.897638,18.897638 0 0 0 -0.7089844,0.625 z m 0.7089844,-0.625 A 18.897638,18.897638 0 0 1 7.4042969,3.9121094 18.897638,18.897638 0 0 0 6.6640625,4.5214844 Z M 7.4042969,3.9121094 A 18.897638,18.897638 0 0 1 8.1796875,3.3574219 18.897638,18.897638 0 0 0 7.4042969,3.9121094 Z M 8.1796875,3.3574219 A 18.897638,18.897638 0 0 1 8.9355469,2.8535156 18.897638,18.897638 0 0 0 8.1796875,3.3574219 Z M 8.9355469,2.8535156 A 18.897638,18.897638 0 0 1 9.8183594,2.3476562 18.897638,18.897638 0 0 0 8.9355469,2.8535156 Z M 9.8183594,2.3476562 A 18.897638,18.897638 0 0 1 10.578125,1.9433594 18.897638,18.897638 0 0 0 9.8183594,2.3476562 Z M 10.578125,1.9433594 a 18.897638,18.897638 0 0 1 0.943359,-0.421875 18.897638,18.897638 0 0 0 -0.943359,0.421875 z m 0.943359,-0.421875 A 18.897638,18.897638 0 0 1 12.316406,1.1972656 18.897638,18.897638 0 0 0 11.521484,1.5214844 Z M 12.316406,1.1972656 A 18.897638,18.897638 0 0 1 13.261719,0.8828125 18.897638,18.897638 0 0 0 12.316406,1.1972656 Z M 13.261719,0.8828125 A 18.897638,18.897638 0 0 1 14.134766,0.62304688 18.897638,18.897638 0 0 0 13.261719,0.8828125 Z M 14.134766,0.62304688 A 18.897638,18.897638 0 0 1 15.0625,0.41601562 18.897638,18.897638 0 0 0 14.134766,0.62304688 Z M 15.0625,0.41601562 A 18.897638,18.897638 0 0 1 15.994141,0.23828125 18.897638,18.897638 0 0 0 15.0625,0.41601562 Z m 0.931641,-0.17773437 a 18.897638,18.897638 0 0 1 0.914062,-0.11132813 18.897638,18.897638 0 0 0 -0.914062,0.11132813 z m 0.914062,-0.11132813 a 18.897638,18.897638 0 0 1 1.042969,-0.09375 18.897638,18.897638 0 0 0 -1.042969,0.09375 z m 1.042969,-0.09375 a 18.897638,18.897638 0 0 1 0.636719,-0.02148437 18.897638,18.897638 0 0 0 -0.417969,0.0019531 18.897638,18.897638 0 0 0 -0.21875,0.01953127 z"
       transform="matrix(0.26458333,0,0,0.26458333,0,287)"
       id="path3694"
       inkscape:connector-curvature="0"
       clip-path="url(#clipPath4691)" />
    <path
       style="fill:none;stroke:#f48400;stroke-width:1.36500001;stroke-linecap:butt;stroke-linejoin:miter;stroke-miterlimit:4;stroke-dasharray:none;stroke-opacity:1"
       d="m 8.7520708,295.87573 -6.3325866,0.008 0.8296283,-8.83613"
       id="path4519"
       inkscape:connector-curvature="0"
       sodipodi:nodetypes="ccc"
       clip-path="url(#clipPath4687)" />
  </g>
  <g
     inkscape:groupmode="layer"
     id="layer2"
     inkscape:label="Ebene 2">
    <circle
       style="fill:#ff7efd;fill-opacity:0;stroke:#008d06;stroke-width:0.20061818;stroke-linecap:butt;stroke-linejoin:miter;stroke-miterlimit:4;stroke-dasharray:none;stroke-opacity:1"
       id="path4581"
       cx="5"
       cy="5"
       r="4.8996911"
       clip-path="url(#clipPath4683)" />
  </g>
</svg>
